<?xml version="1.0" encoding="UTF-8" standalone="no"?>
<svg
   xmlns:dc="http://purl.org/dc/elements/1.1/"
   xmlns:cc="http://creativecommons.org/ns#"
   xmlns:rdf="http://www.w3.org/1999/02/22-rdf-syntax-ns#"
   xmlns:svg="http://www.w3.org/2000/svg"
   xmlns="http://www.w3.org/2000/svg"
   id="svg65"
   version="1.1"
   viewBox="0 0 252 252"
   height="252pt"
   width="252pt">
  <metadata
     id="metadata71">
    <rdf:RDF>
      <cc:Work
         rdf:about="">
        <dc:format>image/svg+xml</dc:format>
        <dc:type
           rdf:resource="http://purl.org/dc/dcmitype/StillImage" />
        <dc:title></dc:title>
      </cc:Work>
    </rdf:RDF>
  </metadata>
  <defs
     id="defs69" />
  <g
     id="g940">
    <path
       id="path2"
       d="M 252,125.89453 C 252,91.136719 239.60937,61.53125 214.9375,36.960938 190.25781,12.285156 160.65234,0 125.89453,0 91.140625,0 61.53125,12.285156 36.960938,36.960938 12.285156,61.53125 0,91.140625 0,125.89453 0,160.65234 12.285156,190.36719 36.960938,215.03906 61.53125,239.71484 91.140625,252 125.89453,252 160.65234,252 190.25781,239.71484 214.9375,215.03906 239.60937,190.36719 252,160.65234 252,125.89453 Z m 0,0"
       style="fill:#0064a9;fill-opacity:1;fill-rule:nonzero;stroke:none" />
    <path
       id="path4"
       d="m 180.70312,171.57032 v -8.19141 L 131.35546,94.816409 m 0,0 h -5.77343 L 209.05468,210.83985 M 70.769527,171.57032 v -8.19141 L 120.01562,94.816409 m 0,0 h 5.56641 L 42.316402,210.83985"
       style="fill:none;stroke:#ffffff;stroke-width:1.95;stroke-linecap:round;stroke-linejoin:round;stroke-miterlimit:10;stroke-opacity:1;stroke-dasharray:none" />
    <path
       id="path6"
       d="m 125.89453,200.33985 c -2.41407,0 -4.51563,1.99609 -6.29688,5.98437 -1.78515,3.99219 -2.62891,8.71485 -2.62891,14.28125 0,5.45703 0.84376,10.1836 2.62891,14.17188 1.78125,3.88672 3.88281,5.88281 6.29688,5.88281 2.41797,0 4.62109,-1.99609 6.40625,-5.88281 1.78515,-3.88281 2.625,-8.60547 2.625,-14.17188 0,-5.5664 -0.83985,-10.28906 -2.625,-14.28125 -1.78516,-3.98828 -3.98828,-5.98437 -6.40625,-5.98437 z m -9.97656,7.98047 c -4.51172,-0.52344 -7.45313,0.21093 -8.60548,2.20312 -1.26172,1.99609 -0.52734,4.6211 2.3086,8.08594 2.73047,3.35937 6.61328,6.40234 11.75781,9.23828 5.14844,2.83594 10.08203,4.51953 14.59766,5.04297 4.51172,0.52734 7.45312,-0.31641 8.60937,-2.3086 1.15235,-1.99999 0.41797,-4.72656 -2.3125,-8.08984 -2.83203,-3.35937 -6.71875,-6.40234 -11.86328,-9.23828 -5.14453,-2.83594 -9.97656,-4.41016 -14.49218,-4.93359 z m 26.35546,10.28906 c 2.73047,-3.46484 3.46485,-6.08985 2.3125,-8.08594 -1.15625,-1.99219 -4.09765,-2.72656 -8.60937,-2.20312 -4.51563,0.52343 -9.44922,2.09765 -14.59766,4.93359 -5.14453,2.83594 -9.02734,5.87891 -11.75781,9.23828 -2.83594,3.46875 -3.57032,6.08985 -2.3086,8.08984 1.15235,1.99219 4.09376,2.83204 8.60548,2.3086 4.51562,-0.52344 9.34765,-2.20703 14.49218,-5.04297 5.14453,-2.72656 9.03125,-5.77344 11.86328,-9.23828 z m 0,0"
       style="fill:none;stroke:#ffffff;stroke-width:1.65;stroke-linecap:round;stroke-linejoin:round;stroke-miterlimit:10;stroke-opacity:1;stroke-dasharray:none" />
    <path
       id="path8"
       d="M 170.41406,87.464844 V 77.28125 H 81.691406 v 10.183594 z m 0,0"
       style="fill:#ffffff;fill-opacity:1;fill-rule:nonzero;stroke:none" />
    <path
       id="path10"
       d="m 119.28125,89.460938 c 1.78516,1.675781 3.88281,2.519531 6.30078,2.519531 2.51953,0 4.72266,-0.84375 6.50781,-2.519531 1.78516,-1.679688 2.625,-3.675782 2.625,-6.089844 0,-2.308594 -0.83984,-4.304688 -2.625,-5.878906 -1.78515,-1.683594 -3.98828,-2.523438 -6.50781,-2.523438 -2.41797,0 -4.51562,0.839844 -6.30078,2.523438 -1.78516,1.574218 -2.62891,3.570312 -2.62891,5.878906 0,2.414062 0.84375,4.410156 2.62891,6.089844 z m 0,0"
       style="fill:#4c6678;fill-opacity:1;fill-rule:nonzero;stroke:none" />
    <path
       id="path12"
       d="m 206.42969,43.574219 c -1.89063,0 -3.98828,3.78125 -6.30078,11.339843 -1.15625,3.78125 -2.20313,7.558594 -2.9375,11.339844 -5.77735,-3.464844 -10.81641,-5.667968 -15.1211,-6.613281 l -4.72656,-0.316406 c 2.52344,7.769531 10.92187,15.75 25.19922,23.941406 4.41015,-3.675781 6.40625,-11.339844 5.88281,-23.101563 z m 0,0"
       style="fill:#ffffff;fill-opacity:1;fill-rule:nonzero;stroke:none" />
    <path
       id="path14"
       d="m 218.29297,68.667969 c -1.88672,-0.105469 -4.19922,3.46875 -7.03516,10.710937 l -3.5664,11.023438 c -5.35547,-3.882813 -10.08204,-6.507813 -14.38672,-7.664063 l -4.72266,-0.734375 c 1.78516,7.875 9.55469,16.488282 23.41016,25.832034 5.77734,-4.6211 8.61328,-12.496096 8.40234,-23.730471 z m 0,0"
       style="fill:#ffffff;fill-opacity:1;fill-rule:nonzero;stroke:none" />
    <path
       id="path16"
       d="m 219.87109,104.37109 -5.04297,11.02344 c -5.03906,-4.30469 -9.55468,-7.35156 -13.64843,-9.13672 l -4.6211,-1.36328 c 0.94532,8.08594 7.66407,17.21875 20.16016,27.40625 6.40625,-4.83203 10.28906,-12.70703 11.55078,-23.625 V 93.871094 c -1.89062,-0.316406 -4.72656,3.253906 -8.39844,10.499996 z m 0,0"
       style="fill:#ffffff;fill-opacity:1;fill-rule:nonzero;stroke:none" />
    <path
       id="path18"
       d="m 231.94531,123.79688 c -1.67969,-0.73438 -5.14453,1.88671 -10.28906,8.08203 l -7.24609,9.44921 c -3.46485,-5.24609 -6.92969,-9.23828 -10.39454,-11.86328 l -4.19921,-2.51953 c -0.21094,9.76172 3.98828,20.6875 12.70312,32.54688 6.82422,-2.72657 12.17969,-9.55078 15.85547,-20.36719 z m 0,0"
       style="fill:#ffffff;fill-opacity:1;fill-rule:nonzero;stroke:none" />
    <path
       id="path20"
       d="m 233.41406,152.87891 c -1.36328,-1.25782 -6.08984,0.63281 -14.27734,5.67187 l -11.86719,7.87109 c -1.15625,-5.98046 -3.04687,-10.70703 -5.56641,-14.17187 l -3.35937,-3.35938 c -3.57031,8.39844 -3.77734,19.10938 -0.52344,32.12891 10.60547,-1.15234 19.63672,-6.08984 27.30078,-15.01562 3.88282,-4.51172 6.61328,-8.82032 8.29297,-13.125 z m 0,0"
       style="fill:#ffffff;fill-opacity:1;fill-rule:nonzero;stroke:none" />
    <path
       id="path22"
       d="m 221.75781,182.17578 c -3.67187,-1.36719 -9.65625,-0.94922 -17.95312,1.25781 l -11.44532,3.67578 c 0.94532,-5.98437 0.83985,-11.33984 -0.10546,-15.85546 l -1.78516,-5.03907 c -7.66406,6.40625 -11.12891,17.64063 -10.60156,33.49219 12.38672,-0.83984 23.09765,-3.98828 32.1289,-9.55078 4.51172,-2.73047 7.76953,-5.35938 9.76172,-7.98047 z m 0,0"
       style="fill:#ffffff;fill-opacity:1;fill-rule:nonzero;stroke:none" />
    <path
       id="path24"
       d="m 197.71484,207.58203 c -3.88672,-2.62109 -9.76562,-3.67187 -17.64062,-3.25391 l -10.70703,1.36719 c 5.98437,-10.39844 7.66406,-18.26953 5.03906,-23.625 -11.13281,9.34766 -17.95703,20.26563 -20.37109,32.96875 8.5039,3.04297 18.26953,2.625 29.5039,-1.05078 5.56641,-1.78516 10.28906,-3.98828 14.17578,-6.40625 z m 0,0"
       style="fill:#ffffff;fill-opacity:1;fill-rule:nonzero;stroke:none" />
    <path
       id="path26"
       d="M 54.703125,66.253906 C 51.660156,51.136719 48.511719,43.574219 45.464844,43.574219 L 43.363281,60.164062 C 42.839844,71.925781 44.835938,79.589844 49.347656,83.265625 63.628906,75.074219 72.03125,67.09375 74.550781,59.324219 70.457031,58.378906 63.839844,60.6875 54.703125,66.253906 Z m 0,0"
       style="fill:#ffffff;fill-opacity:1;fill-rule:nonzero;stroke:none" />
    <path
       id="path28"
       d="M 40.632812,79.378906 C 37.796875,72.136719 35.492188,68.5625 33.496094,68.667969 L 31.5,84.105469 C 31.289062,95.339844 34.125,103.21484 39.898438,107.83594 53.65625,98.492188 61.53125,89.878906 63.316406,82.003906 59.113281,81.375 52.710938,84.210938 44.203125,90.402344 Z m 0,0"
       style="fill:#ffffff;fill-opacity:1;fill-rule:nonzero;stroke:none" />
    <path
       id="path30"
       d="M 37.0625,115.39453 32.027344,104.37109 C 28.347656,97.125 25.515625,93.554688 23.625,93.871094 v 14.804686 c 1.261719,10.91797 5.144531,18.79297 11.550781,23.625 12.496094,-10.1875 19.109375,-19.32031 20.054688,-27.40625 -4.199219,0.10547 -10.289063,3.67578 -18.167969,10.5 z m 0,0"
       style="fill:#ffffff;fill-opacity:1;fill-rule:nonzero;stroke:none" />
    <path
       id="path32"
       d="m 30.242188,131.87891 c -5.148438,-6.19532 -8.71875,-8.81641 -10.5,-8.08203 l 3.566406,15.32812 c 3.78125,10.81641 9.136718,17.64062 16.066406,20.36719 8.714844,-11.85938 12.917969,-22.78516 12.703125,-32.54688 l -4.09375,2.51953 c -3.464844,2.625 -7.035156,6.61719 -10.5,11.86328 z m 0,0"
       style="fill:#ffffff;fill-opacity:1;fill-rule:nonzero;stroke:none" />
    <path
       id="path34"
       d="m 32.65625,158.55078 c -8.191406,-5.03906 -12.914062,-6.92969 -14.175781,-5.67187 l 1.996093,3.99218 c 1.785157,3.25391 3.882813,6.29688 6.300782,9.13282 7.558594,8.92578 16.585937,13.86328 27.191406,15.01562 C 57.226562,168 57.121094,157.28906 53.445312,148.89062 L 50.082031,152.25 c -2.410156,3.46484 -4.300781,8.19141 -5.457031,14.17187 -3.882812,-2.72656 -7.875,-5.35156 -11.96875,-7.87109 z m 0,0"
       style="fill:#ffffff;fill-opacity:1;fill-rule:nonzero;stroke:none" />
    <path
       id="path36"
       d="m 48.195312,183.43359 c -8.402343,-2.20703 -14.386718,-2.625 -18.0625,-1.25781 l 9.765626,7.98047 c 9.03125,5.5625 19.742187,8.71094 32.132812,9.55078 0.523438,-15.85156 -3.152344,-27.08594 -10.816406,-33.49219 l -1.574219,5.03907 c -0.945313,4.51562 -0.945313,9.87109 0,15.85546 -3.464844,-1.36328 -7.246094,-2.51953 -11.445313,-3.67578 z m 0,0"
       style="fill:#ffffff;fill-opacity:1;fill-rule:nonzero;stroke:none" />
    <path
       id="path38"
       d="m 71.714844,204.32812 c -7.769532,-0.41796 -13.652344,0.63282 -17.535156,3.25391 l 14.175781,6.40625 c 11.128906,3.67578 20.894531,4.09375 29.398437,1.05078 -2.414062,-12.70312 -9.132812,-23.62109 -20.265625,-32.96875 l -0.941406,5.98438 c 0.101563,5.25 2.097656,11.1289 5.773437,17.64062 z m 0,0"
       style="fill:#ffffff;fill-opacity:1;fill-rule:nonzero;stroke:none" />
    <path
       id="path40"
       d="m 162.01562,45.359375 c -2.41406,-2.3125 -5.35546,-3.464844 -8.71484,-3.464844 -3.46484,0 -6.40625,1.152344 -8.82031,3.464844 -2.41406,2.207031 -3.67578,4.9375 -3.67578,8.1875 0,3.257813 1.26172,5.988281 3.67578,8.191406 2.41406,2.207031 5.35547,3.359375 8.82031,3.359375 3.35938,0 6.30078,-1.152344 8.71484,-3.359375 2.41407,-2.203125 3.67188,-4.933593 3.67188,-8.191406 0,-3.25 -1.25781,-5.980469 -3.67188,-8.1875 z m -16.17187,1.15625 c 1.99609,-1.996094 4.51562,-2.941406 7.45703,-2.941406 2.83594,0 5.35156,0.945312 7.45313,2.941406 1.99609,1.996094 3.04687,4.304687 3.04687,7.03125 0,2.628906 -1.05078,4.9375 -3.04687,6.933594 -2.10157,1.992187 -4.61719,2.941406 -7.45313,2.941406 -2.94141,0 -5.46094,-0.949219 -7.45703,-2.941406 -2.09766,-1.996094 -3.14844,-4.304688 -3.14844,-6.933594 0,-2.726563 1.05078,-5.035156 3.14844,-7.03125 z m 0,0"
       style="fill:#ffffff;fill-opacity:1;fill-rule:nonzero;stroke:none;stroke-width:0.075;stroke-miterlimit:10;stroke-dasharray:none" />
    <path
       id="path42"
       d="m 125.58203,41.894531 c -3.36328,0 -6.30078,1.152344 -8.71484,3.464844 -2.41797,2.207031 -3.67578,4.9375 -3.67578,8.1875 0,3.257813 1.25781,5.988281 3.67578,8.191406 2.41406,2.207031 5.35156,3.359375 8.71484,3.359375 3.46484,0 6.40234,-1.152344 8.81641,-3.359375 2.41797,-2.203125 3.67578,-4.933593 3.67578,-8.191406 0,-3.25 -1.25781,-5.980469 -3.67578,-8.1875 -2.41407,-2.3125 -5.35157,-3.464844 -8.81641,-3.464844 z m -7.35156,4.621094 c 1.99219,-1.996094 4.51562,-2.941406 7.35156,-2.941406 3.04297,0 5.5625,0.945312 7.55859,2.941406 2.09766,1.996094 3.14844,4.304687 3.14844,7.03125 0,2.734375 -1.05078,5.042969 -3.14844,6.933594 -2.10156,1.992187 -4.62109,2.941406 -7.55859,2.941406 -2.83594,0 -5.25,-0.949219 -7.35156,-2.941406 -1.99609,-1.996094 -3.04688,-4.304688 -3.04688,-6.933594 0,-2.726563 1.05079,-5.035156 3.04688,-7.03125 z m 0,0"
       style="fill:#ffffff;fill-opacity:1;fill-rule:nonzero;stroke:none;stroke-width:7.5;stroke-miterlimit:10;stroke-dasharray:none" />
    <path
       id="path44"
       d="m 106.89063,45.359375 c -2.41407,-2.3125 -5.35547,-3.464844 -8.820318,-3.464844 -3.359374,0 -6.300781,1.152344 -8.714843,3.464844 -2.417969,2.207031 -3.675781,4.9375 -3.675781,8.1875 0,3.257813 1.257812,5.988281 3.675781,8.191406 2.414062,2.207031 5.355469,3.359375 8.714843,3.359375 3.464848,0 6.406248,-1.152344 8.820318,-3.359375 2.41406,-2.203125 3.67578,-4.933593 3.67578,-8.191406 0,-3.25 -1.26172,-5.980469 -3.67578,-8.1875 z m -16.17188,1.15625 c 1.996094,-1.996094 4.515625,-2.941406 7.351562,-2.941406 2.941408,0 5.460938,0.945312 7.558598,2.941406 2.10156,1.996094 3.15234,4.304687 3.15234,7.03125 0,2.628906 -1.05078,4.9375 -3.15234,6.933594 -2.09766,1.992187 -4.61719,2.941406 -7.558598,2.941406 -2.835937,0 -5.355468,-0.949219 -7.351562,-2.941406 -2.097656,-1.996094 -3.148438,-4.304688 -3.148438,-6.933594 0,-2.726563 1.050782,-5.035156 3.148438,-7.03125 z m 0,0"
       style="fill:#ffffff;fill-opacity:1;fill-rule:nonzero;stroke:none;stroke-width:7.5;stroke-miterlimit:10;stroke-dasharray:none" />
    <path
       id="path46"
       d="m 111.92969,71.925781 c 3.46484,0 6.40625,-1.15625 8.82031,-3.464843 2.41406,-2.207032 3.57031,-4.9375 3.57031,-8.191407 0,-3.253906 -1.15625,-5.984375 -3.57031,-8.191406 -2.41406,-2.308594 -5.35547,-3.464844 -8.82031,-3.464844 -3.46485,0 -6.30078,1.15625 -8.71485,3.464844 -2.41406,2.207031 -3.675778,4.9375 -3.675778,8.191406 0,3.253907 1.261718,5.984375 3.675778,8.191407 2.41407,2.308593 5.25,3.464843 8.71485,3.464843 z m 7.55859,-18.691406 c 1.9961,1.890625 3.04688,4.199219 3.04688,7.035156 0,2.730469 -1.05078,5.039063 -3.04688,6.929688 -2.09765,1.890625 -4.62109,2.835937 -7.55859,2.835937 -2.83203,0 -5.35156,-0.945312 -7.45313,-2.835937 -1.99609,-1.890625 -3.04687,-4.199219 -3.04687,-6.929688 0,-2.726562 1.05078,-5.039062 3.04687,-7.035156 2.10157,-1.890625 4.6211,-2.835937 7.45313,-2.835937 2.9375,0 5.46094,0.945312 7.55859,2.835937 z m 0,0"
       style="fill:#ffffff;fill-opacity:1;fill-rule:nonzero;stroke:none;stroke-width:7.5;stroke-miterlimit:10;stroke-dasharray:none" />
    <path
       id="path48"
       d="m 130.93359,68.460938 c 2.41797,2.308593 5.35547,3.464843 8.82032,3.464843 3.36328,0 6.30078,-1.15625 8.71484,-3.464843 2.41797,-2.207032 3.67578,-4.9375 3.67578,-8.191407 0,-3.253906 -1.25781,-5.984375 -3.67578,-8.191406 -2.41406,-2.308594 -5.35156,-3.464844 -8.71484,-3.464844 -3.46485,0 -6.40235,1.15625 -8.82032,3.464844 -2.41406,2.207031 -3.67187,4.9375 -3.67187,8.191406 0,3.253907 1.25781,5.984375 3.67187,8.191407 z m 8.82032,1.574218 c -3.04297,0 -5.56641,-0.945312 -7.5586,-2.835937 -2.10156,-1.890625 -3.14844,-4.199219 -3.14844,-6.929688 0,-2.835937 1.04688,-5.144531 3.14844,-7.035156 1.99219,-1.890625 4.51563,-2.835937 7.5586,-2.835937 2.83593,0 5.35546,0.945312 7.35156,2.835937 1.99609,1.996094 3.04687,4.308594 3.04687,7.035156 0,2.730469 -1.05078,5.039063 -3.04687,6.929688 -1.9961,1.890625 -4.51563,2.835937 -7.35156,2.835937 z m 0,0"
       style="fill:#ffffff;fill-opacity:1;fill-rule:nonzero;stroke:none;stroke-width:7.5;stroke-miterlimit:10;stroke-dasharray:none" />
    <path
       id="path50"
       d="m 131.56641,220.60547 c 0,-3.46485 -1.89063,-5.25 -5.67188,-5.25 -3.67578,0 -5.5625,1.78515 -5.5625,5.25 0,3.46484 1.88672,5.14062 5.5625,5.14062 3.78125,0 5.67188,-1.67578 5.67188,-5.14062 z m 0,0"
       style="fill:#ffffff;fill-opacity:1;fill-rule:nonzero;stroke:none;stroke-width:1.65;stroke-miterlimit:10;stroke-dasharray:none" />
    <path
       id="path52"
       d="m 131.25,83.371094 c 0,-3.46875 -1.89063,-5.144532 -5.66797,-5.144532 -3.67578,0 -5.46094,1.675782 -5.46094,5.144532 0,3.460937 1.78516,5.246094 5.46094,5.246094 3.77734,0 5.66797,-1.785157 5.66797,-5.246094 z m 0,0"
       style="fill:#ffffff;fill-opacity:1;fill-rule:nonzero;stroke:none" />
    <path
       id="path54"
       d="M 134.60937,97.964844 V 92.1875 h -17.84765 v 5.777344 z m 0,0"
       style="fill:#ffffff;fill-opacity:1;fill-rule:nonzero;stroke:none" />
    <path
       id="path56"
       d="m 187.32031,44.625 c -7.03515,-9.765625 -11.76172,-13.964844 -14.17578,-12.601562 -1.15625,0.523437 -1.05078,2.519531 0.21094,5.878906 1.36328,3.363281 3.35937,7.039062 6.19531,11.027344 6.71875,9.871093 11.44531,14.070312 14.17188,12.707031 2.6289,-1.472657 0.42187,-7.140625 -6.40235,-17.011719 z m 0,0"
       style="fill:#ffffff;fill-opacity:1;fill-rule:nonzero;stroke:none" />
    <path
       id="path58"
       d="M 78.75,32.023438 C 76.125,30.660156 71.398438,34.859375 64.574219,44.625 57.644531,54.390625 55.546875,60.0625 58.171875,61.636719 60.796875,63 65.519531,58.800781 72.34375,48.929688 79.378906,39.058594 81.480469,33.390625 78.75,32.023438 Z m 0,0"
       style="fill:#ffffff;fill-opacity:1;fill-rule:nonzero;stroke:none" />
    <path
       id="path60"
       d="m 90.40625,105.31641 0.105469,49.87109 c 1.046875,14.91406 7.136719,25.62109 18.371091,32.23828 5.56641,3.25 11.13282,5.03516 16.48438,5.35156 14.38672,-2.72656 24.57031,-9.76562 30.55859,-21.10156 3.04297,-5.56641 4.62109,-10.92187 4.72656,-16.06641 l 0.3125,-50.29296 z m 0,0"
       style="fill:#be4709;fill-opacity:1;fill-rule:nonzero;stroke:none" />
    <path
       id="path62"
       d="m 160.85937,139.75391 v -13.64844 h -28.45703 v -20.78906 h -13.4375 v 20.78906 H 90.511719 v 13.64844 H 118.96484 V 191.625 l 6.40235,1.15234 7.03515,-1.78515 v -51.23828 z m 0,0"
       style="fill:#ffffff;fill-opacity:1;fill-rule:nonzero;stroke:none" />
  </g>
</svg>
