<svg version="1.1" id="Layer_1" xmlns="http://www.w3.org/2000/svg" xmlns:xlink="http://www.w3.org/1999/xlink" x="0px" y="0px"
	 width="100%" viewBox="0 0 225 225" enable-background="new 0 0 225 225" xml:space="preserve">
<path fill="#FFFFFF" opacity="1.000000" stroke="none" 
	d="
M122.000000,226.000000 
	C81.333336,226.000000 41.166672,226.000000 1.000005,226.000000 
	C1.000004,151.000000 1.000004,76.000015 1.000002,1.000015 
	C75.999992,1.000010 150.999985,1.000010 225.999969,1.000005 
	C225.999985,75.999985 225.999985,150.999969 226.000000,225.999969 
	C191.500000,226.000000 157.000000,226.000000 122.000000,226.000000 
M104.013275,56.285526 
	C103.962410,55.868591 103.911537,55.451656 103.981567,54.101326 
	C103.941223,48.392899 103.900871,42.684475 103.914146,36.397419 
	C103.604301,36.248104 103.294464,36.098785 102.064163,35.765289 
	C82.379204,35.833939 62.694241,35.902588 42.499416,35.836472 
	C42.330307,35.884464 42.161194,35.932461 41.345924,35.773670 
	C40.901340,35.828026 40.456760,35.882378 39.232800,36.343735 
	C39.156609,37.001099 39.013882,37.658443 39.013710,38.315830 
	C39.000919,87.350861 38.992481,136.385895 39.039604,185.420883 
	C39.040703,186.562775 39.677139,187.704025 40.942516,188.984589 
	C47.311184,188.698730 53.679852,188.412872 60.770771,187.628571 
	C60.790253,144.765640 60.809731,101.902718 60.999722,58.579502 
	C60.999722,58.579502 61.137997,58.108528 62.054123,58.039635 
	C74.333305,58.027439 86.612839,58.056450 98.891281,57.954815 
	C100.567772,57.940941 102.238869,57.275295 104.013275,56.285526 
M125.797707,100.614868 
	C126.196175,100.734070 126.594650,100.853271 127.916779,101.150520 
	C142.131287,101.150520 156.345779,101.150520 171.085434,101.150520 
	C171.085434,115.863182 171.085434,129.938904 171.028946,144.568008 
	C171.345688,144.675690 171.662415,144.783371 172.911057,145.016006 
	C178.950241,144.963181 184.989426,144.910370 191.571732,144.962067 
	C191.897949,144.647751 192.224167,144.333450 192.772903,143.104553 
	C192.703720,122.360550 192.634521,101.616539 192.468781,80.110092 
	C192.006210,79.972084 191.543655,79.834068 190.311676,79.398354 
	C176.063675,79.398354 161.815659,79.398354 147.026840,79.398354 
	C147.026840,64.879242 147.026840,50.942440 147.066406,36.425991 
	C146.719711,36.325550 146.373001,36.225109 145.095413,35.986176 
	C139.055862,36.032509 133.016296,36.078846 126.341690,36.077099 
	C126.165306,36.402023 125.988930,36.726948 125.564583,37.955601 
	C125.647766,58.620163 125.730957,79.284729 125.797707,100.614868 
M103.553261,80.455345 
	C103.044609,80.349998 102.535965,80.244652 101.095886,80.004295 
	C95.055504,80.048592 89.015129,80.092896 82.422623,80.069588 
	C82.299759,80.375839 82.176895,80.682091 81.886200,81.914124 
	C81.942627,102.613060 81.999054,123.311989 82.005836,144.573517 
	C82.330330,144.683685 82.654831,144.793869 83.909592,145.047775 
	C97.941612,145.102768 111.973633,145.157745 126.219719,145.561432 
	C126.404068,145.773743 126.631065,145.919724 127.068314,146.923676 
	C127.122612,160.609695 127.176910,174.295731 127.118851,188.500198 
	C127.417503,188.614609 127.716148,188.729034 128.940033,188.985291 
	C135.305389,188.695282 141.670731,188.405273 148.543655,187.939377 
	C148.651276,187.633835 148.758896,187.328278 149.026047,186.094498 
	C149.026047,165.203247 149.026047,144.312012 149.026047,123.095795 
	C135.129456,123.095795 121.848946,123.135170 108.569283,123.046974 
	C106.871506,123.035698 105.178146,122.359741 103.652100,121.500320 
	C103.595703,121.336510 103.539314,121.172691 103.713867,120.098206 
	C103.637093,107.064827 103.560310,94.031441 103.553261,80.455345 
M192.018158,176.524475 
	C192.018158,173.435822 192.018158,170.347153 192.018158,167.002731 
	C185.441986,167.002731 179.484726,166.804352 173.561172,167.162872 
	C172.311081,167.238525 170.264908,169.280594 170.163330,170.543533 
	C169.765854,175.485565 169.802612,180.491959 170.139297,185.443054 
	C170.223938,186.687729 171.972855,188.782089 173.043228,188.838135 
	C179.261566,189.163742 185.505676,188.997421 192.018158,188.997421 
	C192.018158,184.754517 192.018158,181.130554 192.018158,176.524475 
M192.005249,54.281540 
	C192.005249,48.231995 192.005249,42.182449 192.005249,35.998459 
	C185.439194,35.998459 179.643539,36.071548 173.851120,35.966293 
	C171.130493,35.916859 169.901596,36.917637 169.969498,39.728527 
	C170.081543,44.365967 169.894104,49.012478 170.084229,53.644848 
	C170.128891,54.733322 171.158508,56.694283 171.766098,56.706490 
	C178.339676,56.838615 184.919708,56.671616 191.496216,56.513348 
	C191.669586,56.509174 191.823135,55.681129 192.005249,54.281540 
M82.812943,167.129868 
	C82.431641,174.285172 82.050339,181.440491 81.647568,188.998779 
	C87.997810,188.998779 93.455353,189.044464 98.911606,188.980652 
	C101.907646,188.945618 103.234299,187.495209 103.058868,184.312271 
	C102.821152,179.999237 102.860931,175.657379 103.045120,171.339111 
	C103.182198,168.125519 102.035522,166.819977 98.736290,166.949142 
	C93.752045,167.144272 88.754959,167.011353 82.812943,167.129868 
z"/>
<path fill="#DE5336" opacity="1.000000" stroke="none" 
	d="
M103.860519,36.976048 
	C103.900871,42.684475 103.941223,48.392899 103.701843,54.729530 
	C103.284630,55.872288 103.147125,56.386837 102.542686,56.951157 
	C89.371071,56.957542 76.666397,56.914162 63.880798,56.725391 
	C63.799877,56.580002 63.366638,56.488014 63.366638,56.488014 
	C63.366638,56.488014 63.046638,56.843719 62.735207,56.913437 
	C61.995186,57.358280 61.566589,57.733402 61.137997,58.108528 
	C61.137997,58.108528 60.999722,58.579502 60.653454,59.126686 
	C60.204792,60.659985 60.012875,61.646103 60.012901,62.632210 
	C60.014076,104.463806 60.032352,146.295395 60.048519,188.126999 
	C53.679852,188.412872 47.311184,188.698730 40.473240,188.456940 
	C40.006702,137.265091 40.009438,86.600914 40.012177,35.936729 
	C40.456760,35.882378 40.901340,35.828026 41.762421,36.046009 
	C42.455704,36.202641 42.732491,36.086937 43.009277,35.971233 
	C62.694241,35.902588 82.379204,35.833939 102.612213,36.073704 
	C103.322243,36.664326 103.555656,36.862301 103.860519,36.976048 
z"/>
<path fill="#4C4C4C" opacity="1.000000" stroke="none" 
	d="
M103.482750,121.991714 
	C105.178146,122.359741 106.871506,123.035698 108.569283,123.046974 
	C121.848946,123.135170 135.129456,123.095795 149.026047,123.095795 
	C149.026047,144.312012 149.026047,165.203247 148.746429,186.687469 
	C148.235367,187.513367 148.091797,187.791656 148.036087,188.115280 
	C141.670731,188.405273 135.305389,188.695282 128.391846,188.732605 
	C127.701607,188.237488 127.497459,188.071442 127.231201,187.981750 
	C127.176910,174.295731 127.122612,160.609695 127.012207,146.194458 
	C126.639290,145.381058 126.322472,145.296890 126.005653,145.212723 
	C111.973633,145.157745 97.941612,145.102768 83.351013,144.771957 
	C82.605927,144.244583 82.360275,144.082855 82.055473,144.010925 
	C81.999054,123.311989 81.942627,102.613060 82.172562,81.369064 
	C82.716019,80.659042 82.887955,80.430099 82.974747,80.137199 
	C89.015129,80.092896 95.055504,80.048592 101.676430,80.264618 
	C102.665825,80.682648 103.074677,80.840355 103.483528,80.998062 
	C103.560310,94.031441 103.637093,107.064827 103.404442,120.584351 
	C103.224258,121.377563 103.353500,121.684639 103.482750,121.991714 
z"/>
<path fill="#4C4C4C" opacity="1.000000" stroke="none" 
	d="
M126.976746,36.125179 
	C133.016296,36.078846 139.055862,36.032509 145.668121,36.261040 
	C146.452271,36.777046 146.714279,36.933624 147.026840,37.005638 
	C147.026840,50.942440 147.026840,64.879242 147.026840,79.398354 
	C161.815659,79.398354 176.063675,79.398354 190.838074,79.855087 
	C191.764771,80.498718 192.165054,80.685623 192.565338,80.872528 
	C192.634521,101.616539 192.703720,122.360550 192.432510,143.595963 
	C191.737625,144.344101 191.383118,144.600830 191.028610,144.857559 
	C184.989426,144.910370 178.950241,144.963181 172.354065,144.755249 
	C171.618027,144.248306 171.380814,144.088333 171.085434,144.014618 
	C171.085434,129.938904 171.085434,115.863182 171.085434,101.150520 
	C156.345779,101.150520 142.131287,101.150520 127.326660,100.823181 
	C126.429085,100.313652 126.121613,100.131470 125.814148,99.949287 
	C125.730957,79.284729 125.647766,58.620163 125.929008,37.411232 
	C126.521202,36.619637 126.748978,36.372410 126.976746,36.125179 
z"/>
<path fill="#DE5335" opacity="1.000000" stroke="none" 
	d="
M192.018158,177.015533 
	C192.018158,181.130554 192.018158,184.754517 192.018158,188.997421 
	C185.505676,188.997421 179.261566,189.163742 173.043228,188.838135 
	C171.972855,188.782089 170.223938,186.687729 170.139297,185.443054 
	C169.802612,180.491959 169.765854,175.485565 170.163330,170.543533 
	C170.264908,169.280594 172.311081,167.238525 173.561172,167.162872 
	C179.484726,166.804352 185.441986,167.002731 192.018158,167.002731 
	C192.018158,170.347153 192.018158,173.435822 192.018158,177.015533 
z"/>
<path fill="#DE5336" opacity="1.000000" stroke="none" 
	d="
M191.995590,54.759415 
	C191.823135,55.681129 191.669586,56.509174 191.496216,56.513348 
	C184.919708,56.671616 178.339676,56.838615 171.766098,56.706490 
	C171.158508,56.694283 170.128891,54.733322 170.084229,53.644848 
	C169.894104,49.012478 170.081543,44.365967 169.969498,39.728527 
	C169.901596,36.917637 171.130493,35.916859 173.851120,35.966293 
	C179.643539,36.071548 185.439194,35.998459 192.005249,35.998459 
	C192.005249,42.182449 192.005249,48.231995 191.995590,54.759415 
z"/>
<path fill="#DE5336" opacity="1.000000" stroke="none" 
	d="
M83.288132,167.073853 
	C88.754959,167.011353 93.752045,167.144272 98.736290,166.949142 
	C102.035522,166.819977 103.182198,168.125519 103.045120,171.339111 
	C102.860931,175.657379 102.821152,179.999237 103.058868,184.312271 
	C103.234299,187.495209 101.907646,188.945618 98.911606,188.980652 
	C93.455353,189.044464 87.997810,188.998779 81.647568,188.998779 
	C82.050339,181.440491 82.431641,174.285172 83.288132,167.073853 
z"/>
<path fill="#CD604A" opacity="1.000000" stroke="none" 
	d="
M39.622490,36.140232 
	C40.009438,86.600914 40.006702,137.265091 40.010597,188.387421 
	C39.677139,187.704025 39.040703,186.562775 39.039604,185.420883 
	C38.992481,136.385895 39.000919,87.350861 39.013710,38.315830 
	C39.013882,37.658443 39.156609,37.001099 39.622490,36.140232 
z"/>
<path fill="#D45536" opacity="1.000000" stroke="none" 
	d="
M60.409645,187.877777 
	C60.032352,146.295395 60.014076,104.463806 60.012901,62.632210 
	C60.012875,61.646103 60.204792,60.659985 60.568199,59.356834 
	C60.809731,101.902718 60.790253,144.765640 60.409645,187.877777 
z"/>
<path fill="#E1B3AA" opacity="1.000000" stroke="none" 
	d="
M61.596062,58.074081 
	C61.566589,57.733402 61.995186,57.358280 62.962811,56.958401 
	C63.501842,56.933647 63.961723,56.870781 63.961723,56.870781 
	C76.666397,56.914162 89.371071,56.957542 102.768005,56.990116 
	C103.460274,56.979309 103.912468,56.911415 103.912468,56.911415 
	C102.238869,57.275295 100.567772,57.940941 98.891281,57.954815 
	C86.612839,58.056450 74.333305,58.027439 61.596062,58.074081 
z"/>
<path fill="#474747" opacity="1.000000" stroke="none" 
	d="
M103.567429,121.746017 
	C103.353500,121.684639 103.224258,121.377563 103.288971,121.039688 
	C103.539314,121.172691 103.595703,121.336510 103.567429,121.746017 
z"/>
<path fill="#474747" opacity="1.000000" stroke="none" 
	d="
M103.518394,80.726700 
	C103.074677,80.840355 102.665825,80.682648 102.142143,80.332123 
	C102.535965,80.244652 103.044609,80.349998 103.518394,80.726700 
z"/>
<path fill="#404040" opacity="1.000000" stroke="none" 
	d="
M191.300171,144.909821 
	C191.383118,144.600830 191.737625,144.344101 192.321259,144.053253 
	C192.224167,144.333450 191.897949,144.647751 191.300171,144.909821 
z"/>
<path fill="#D94C27" opacity="1.000000" stroke="none" 
	d="
M103.962875,56.598473 
	C103.912468,56.911415 103.460274,56.979309 103.234955,56.940346 
	C103.147125,56.386837 103.284630,55.872288 103.641396,55.196228 
	C103.911537,55.451656 103.962410,55.868591 103.962875,56.598473 
z"/>
<path fill="#F3F3F3" opacity="1.000000" stroke="none" 
	d="
M126.112686,145.387085 
	C126.322472,145.296890 126.639290,145.381058 126.928413,145.732300 
	C126.631065,145.919724 126.404068,145.773743 126.112686,145.387085 
z"/>
<path fill="#474747" opacity="1.000000" stroke="none" 
	d="
M148.289871,188.027328 
	C148.091797,187.791656 148.235367,187.513367 148.666672,187.151581 
	C148.758896,187.328278 148.651276,187.633835 148.289871,188.027328 
z"/>
<path fill="#404040" opacity="1.000000" stroke="none" 
	d="
M171.057190,144.291321 
	C171.380814,144.088333 171.618027,144.248306 171.888107,144.692780 
	C171.662415,144.783371 171.345688,144.675690 171.057190,144.291321 
z"/>
<path fill="#3D3D3D" opacity="1.000000" stroke="none" 
	d="
M82.030655,144.292221 
	C82.360275,144.082855 82.605927,144.244583 82.885880,144.700089 
	C82.654831,144.793869 82.330330,144.683685 82.030655,144.292221 
z"/>
<path fill="#696969" opacity="1.000000" stroke="none" 
	d="
M127.175026,188.240967 
	C127.497459,188.071442 127.701607,188.237488 127.929222,188.661682 
	C127.716148,188.729034 127.417503,188.614609 127.175026,188.240967 
z"/>
<path fill="#3D3D3D" opacity="1.000000" stroke="none" 
	d="
M125.805923,100.282074 
	C126.121613,100.131470 126.429085,100.313652 126.864838,100.734146 
	C126.594650,100.853271 126.196175,100.734070 125.805923,100.282074 
z"/>
<path fill="#474747" opacity="1.000000" stroke="none" 
	d="
M192.517059,80.491310 
	C192.165054,80.685623 191.764771,80.498718 191.222778,80.003937 
	C191.543655,79.834068 192.006210,79.972084 192.517059,80.491310 
z"/>
<path fill="#3D3D3D" opacity="1.000000" stroke="none" 
	d="
M82.698685,80.103394 
	C82.887955,80.430099 82.716019,80.659042 82.256477,80.906174 
	C82.176895,80.682091 82.299759,80.375839 82.698685,80.103394 
z"/>
<path fill="#3E3E3E" opacity="1.000000" stroke="none" 
	d="
M147.046631,36.715813 
	C146.714279,36.933624 146.452271,36.777046 146.133575,36.330284 
	C146.373001,36.225109 146.719711,36.325550 147.046631,36.715813 
z"/>
<path fill="#3E3E3E" opacity="1.000000" stroke="none" 
	d="
M126.659218,36.101139 
	C126.748978,36.372410 126.521202,36.619637 126.052994,36.959370 
	C125.988930,36.726948 126.165306,36.402023 126.659218,36.101139 
z"/>
<path fill="#D94C27" opacity="1.000000" stroke="none" 
	d="
M103.887329,36.686733 
	C103.555656,36.862301 103.322243,36.664326 103.072441,36.165794 
	C103.294464,36.098785 103.604301,36.248104 103.887329,36.686733 
z"/>
<path fill="#D94C27" opacity="1.000000" stroke="none" 
	d="
M42.754349,35.903854 
	C42.732491,36.086937 42.455704,36.202641 42.085503,36.149403 
	C42.161194,35.932461 42.330307,35.884464 42.754349,35.903854 
z"/>
<path fill="#D94C27" opacity="1.000000" stroke="none" 
	d="
M63.880798,56.725391 
	C63.961723,56.870781 63.501842,56.933647 63.274239,56.888683 
	C63.046638,56.843719 63.366638,56.488014 63.366638,56.488014 
	C63.366638,56.488014 63.799877,56.580002 63.880798,56.725391 
z"/>
</svg>